HIERARCHY
ROOT Hips
{
	OFFSET 0.000000 0.000000 0.000000
	CHANNELS 6 Xposition Yposition Zposition Zrotation Yrotation Xrotation 
	JOINT LHipJoint
	{
		OFFSET 0.000000 0.000000 0.000000
		CHANNELS 3 Zrotation Yrotation Xrotation
		JOINT LeftUpLeg
		{
			OFFSET 1.363060 -1.794630 0.839290
			CHANNELS 3 Zrotation Yrotation Xrotation
			JOINT LeftLeg
			{
				OFFSET 2.448110 -6.726130 0.000000
				CHANNELS 3 Zrotation Yrotation Xrotation
				JOINT LeftFoot
				{
					OFFSET 2.562200 -7.039590 0.000000
					CHANNELS 3 Zrotation Yrotation Xrotation
					JOINT LeftToeBase
					{
						OFFSET 0.157640 -0.433110 2.322550
						CHANNELS 3 Zrotation Yrotation Xrotation
						End Site
						{
							OFFSET 0.000000 0.000000 0.000000
						}
					}
				}
			}
		}
	}
	JOINT RHipJoint
	{
		OFFSET 0.000000 0.000000 0.000000
		CHANNELS 3 Zrotation Yrotation Xrotation
		JOINT RightUpLeg
		{
			OFFSET -1.305520 -1.794630 0.839290
			CHANNELS 3 Zrotation Yrotation Xrotation
			JOINT RightLeg
			{
				OFFSET -2.542530 -6.985550 0.000000
				CHANNELS 3 Zrotation Yrotation Xrotation
				JOINT RightFoot
				{
					OFFSET -2.568260 -7.056230 0.000000
					CHANNELS 3 Zrotation Yrotation Xrotation
					JOINT RightToeBase
					{
						OFFSET -0.164730 -0.452590 2.363150
						CHANNELS 3 Zrotation Yrotation Xrotation
						End Site
						{
							OFFSET 0.000000 0.000000 0.000000
						}
					}
				}
			}
		}
	}
	JOINT LowerBack
	{
		OFFSET 0.000000 0.000000 0.000000
		CHANNELS 3 Zrotation Yrotation Xrotation
		JOINT Spine
		{
			OFFSET 0.028270 2.035590 -0.193380
			CHANNELS 3 Zrotation Yrotation Xrotation
			JOINT Spine1
			{
				OFFSET 0.056720 2.048850 -0.042750
				CHANNELS 3 Zrotation Yrotation Xrotation
				JOINT Neck
				{
					OFFSET 0.000000 0.000000 0.000000
					CHANNELS 3 Zrotation Yrotation Xrotation
					JOINT Neck1
					{
						OFFSET -0.054170 1.746240 0.172020
						CHANNELS 3 Zrotation Yrotation Xrotation
						JOINT Head
						{
							OFFSET 0.104070 1.761360 -0.123970
							CHANNELS 3 Zrotation Yrotation Xrotation
							End Site
							{
								OFFSET 0.000000 0.000000 0.000000
							}
						}
					}
				}
				JOINT LeftShoulder
				{
					OFFSET 0.000000 0.000000 0.000000
					CHANNELS 3 Zrotation Yrotation Xrotation
					JOINT LeftArm
					{
						OFFSET 3.362410 1.200890 -0.311210
						CHANNELS 3 Zrotation Yrotation Xrotation
						JOINT LeftForeArm
						{
							OFFSET 4.983000 -0.000000 -0.000000
							CHANNELS 3 Zrotation Yrotation Xrotation
							JOINT LeftHand
							{
								OFFSET 3.483560 -0.000000 -0.000000
								CHANNELS 3 Zrotation Yrotation Xrotation
								JOINT LeftFingerBase
								{
									OFFSET 0.000000 0.000000 0.000000
									CHANNELS 3 Zrotation Yrotation Xrotation
									JOINT LeftHandIndex1
									{
										OFFSET 0.715260 -0.000000 -0.000000
										CHANNELS 3 Zrotation Yrotation Xrotation
										End Site
										{
											OFFSET 0.000000 0.000000 0.000000
										}
									}
								}
								JOINT LThumb
								{
									OFFSET 0.000000 0.000000 0.000000
									CHANNELS 3 Zrotation Yrotation Xrotation
									End Site
									{
										OFFSET 0.000000 0.000000 0.000000
									}
								}
							}
						}
					}
				}
				JOINT RightShoulder
				{
					OFFSET 0.000000 0.000000 0.000000
					CHANNELS 3 Zrotation Yrotation Xrotation
					JOINT RightArm
					{
						OFFSET -3.136600 1.374050 -0.404650
						CHANNELS 3 Zrotation Yrotation Xrotation
						JOINT RightForeArm
						{
							OFFSET -5.241900 -0.000000 -0.000000
							CHANNELS 3 Zrotation Yrotation Xrotation
							JOINT RightHand
							{
								OFFSET -3.444170 -0.000000 -0.000000
								CHANNELS 3 Zrotation Yrotation Xrotation
								JOINT RightFingerBase
								{
									OFFSET 0.000000 0.000000 0.000000
									CHANNELS 3 Zrotation Yrotation Xrotation
									JOINT RightHandIndex1
									{
										OFFSET -0.622530 -0.000000 -0.000000
										CHANNELS 3 Zrotation Yrotation Xrotation
										End Site
										{
											OFFSET 0.000000 0.000000 0.000000
										}
									}
								}
								JOINT RThumb
								{
									OFFSET 0.000000 0.000000 0.000000
									CHANNELS 3 Zrotation Yrotation Xrotation
									End Site
									{
										OFFSET 0.000000 0.000000 0.000000
									}
								}
							}
						}
					}
				}
			}
		}
	}
}
MOTION
Frames: 6
Frame Time: 0.008333
0.340622 18.067886 10.870504 -6.380560 -9.409155 2.776690 -3.884743 3.566706 1.936100 -3.155876 -11.349836 -24.358821 -2.526447 3.209600 9.159463 -0.720911 9.332331 21.778678 0.025800 -1.037100 -2.850800 3.828606 -5.278842 7.088557 23.318847 9.755998 5.537309 -1.261563 -7.195447 27.813719 -0.075885 -1.601466 8.712336 -0.160700 2.582600 -7.118700 6.147625 2.737117 3.520763 3.031036 4.183056 1.600374 -1.789722 2.069251 -5.386174 -5.246281 -4.315449 -13.472307 4.572736 -5.217396 16.794855 0.080000 -2.082500 8.955900 -7.514060 2.669431 -1.348524 -82.849096 7.392002 17.035515 7.794898 -14.361315 -1.059977 -1.169793 -1.305495 3.221941 25.458111 21.720919 11.059500 -7.125000 0.000000 0.000000 -2.724100 55.366900 -0.693600 11.758950 -1.258126 -2.255396 72.492170 5.606837 15.520274 -10.749689 22.587095 -2.796032 1.278503 -0.641204 2.462323 -19.672358 21.295026 -8.078900 7.125000 0.000000 0.000000 4.908600 -6.932700 4.296400 
0.362932 18.086139 11.097755 -5.873604 -8.907226 2.913664 -3.968959 3.537233 1.969724 -4.043676 -11.242963 -24.396976 -2.569510 3.281922 9.655696 -0.180116 7.981531 22.862295 0.016300 -0.823200 -2.262600 3.813305 -5.251692 7.086412 22.575606 9.031406 4.844216 -1.486129 -7.519849 28.837508 -0.128546 -1.550690 10.642136 -0.179900 2.731800 -7.533000 5.732422 2.591817 3.146374 2.906487 3.944831 1.323827 -1.629778 1.941732 -5.531467 -5.398163 -4.391771 -13.664646 4.518618 -5.258668 17.577168 0.090700 -2.088100 9.273700 -7.516181 2.712792 -1.367516 -82.895699 8.008082 16.946914 7.888144 -14.540884 -1.085206 -1.168394 -1.366634 2.979112 25.630586 22.789207 11.637800 -7.125000 0.000000 0.000000 -2.891800 56.602000 -0.822900 11.769343 -1.255940 -2.261452 72.479067 5.098347 14.962625 -10.499005 22.243239 -2.692375 1.274665 -0.675663 3.105529 -19.541371 21.494761 -8.102100 7.125000 0.000000 0.000000 5.007200 -6.724100 4.403700 
0.381387 18.118690 11.331191 -4.761248 -8.381411 2.756943 -4.130895 3.597176 2.047076 -5.522480 -11.256488 -24.088426 -2.593439 3.364831 10.239420 -0.009836 7.338361 23.198507 0.020100 -0.915000 -2.514800 3.790078 -5.295753 7.120340 21.207147 8.336884 4.184823 -1.752627 -7.935499 30.014654 -0.133608 -1.800659 13.119709 -0.175900 2.701500 -7.448800 4.627590 2.399389 2.772324 2.639910 3.588056 1.209978 -1.223461 1.771356 -5.543865 -5.400442 -4.354502 -14.094614 4.485711 -5.157393 18.496251 0.101200 -2.008600 9.683900 -7.521261 2.756778 -1.387552 -82.940054 8.680866 17.162117 8.049923 -14.831783 -1.130144 -1.193998 -1.369013 1.740012 26.762427 22.232867 11.957600 -7.125000 0.000000 0.000000 -1.410600 56.237200 -0.388800 11.769720 -1.257779 -2.264040 72.545163 4.598181 14.463897 -10.306107 21.979675 -2.616707 1.262622 -0.699351 3.685666 -19.279667 21.580057 -8.024200 7.125000 0.000000 0.000000 5.183400 -6.663100 4.566100 
0.391832 18.145664 11.560774 -3.937045 -7.853135 2.538512 -4.241991 3.671332 2.163611 -6.707326 -11.077105 -23.672557 -2.595957 3.442296 10.725871 0.081113 6.954262 23.456236 0.012600 -0.724400 -1.990800 3.755358 -5.328214 7.119175 20.222653 7.614142 3.548457 -2.066321 -8.368968 31.301007 -0.159524 -2.071944 15.570245 -0.143800 2.443700 -6.733500 3.700834 2.228763 2.664707 2.474407 3.293915 1.030795 -0.836725 1.623860 -5.771125 -5.423825 -4.338181 -14.054806 4.457895 -5.133106 19.051108 0.106700 -1.981800 9.879400 -7.522344 2.776320 -1.390864 -82.942397 9.174519 17.135776 8.028332 -14.796029 -1.124264 -1.203961 -1.289575 1.018829 27.162834 20.262657 11.186000 -7.125000 0.000000 0.000000 -0.404200 54.093400 -0.090300 11.785299 -1.283282 -2.285015 72.592378 3.931887 13.990838 -10.090557 21.687088 -2.537025 1.254368 -0.685324 4.159922 -19.024426 21.109703 -7.750300 7.125000 0.000000 0.000000 5.306800 -7.211900 4.618900 
0.398931 18.167263 11.781332 -3.424929 -7.346356 2.178415 -4.314558 3.756935 2.324311 -7.582808 -10.746550 -23.146660 -2.595603 3.504003 11.131546 0.226261 6.494482 23.862524 0.018000 -0.865600 -2.379000 3.707538 -5.349156 7.080518 19.682082 7.031472 3.105877 -2.429578 -8.815816 32.692606 -0.153580 -2.435826 17.488050 -0.044100 1.355700 -3.728100 3.052450 2.082262 2.759233 2.407927 3.057041 0.948899 -0.510152 1.506987 -5.981122 -5.407461 -4.394691 -13.761440 4.278500 -5.223908 19.220456 0.033100 -2.036900 9.880400 -7.531174 2.765668 -1.384017 -82.975140 9.265367 16.515923 7.865400 -14.515753 -1.078179 -1.192006 -1.251017 1.089100 26.758993 19.502871 10.619200 -7.125000 0.000000 0.000000 -0.659700 53.145600 -0.132200 11.819701 -1.318485 -2.287025 72.696484 3.685461 12.748188 -9.686000 21.070457 -2.376060 1.242593 -0.708385 5.216078 -18.828139 20.830488 -7.577900 7.125000 0.000000 0.000000 5.408800 -7.527700 4.675100 
0.406637 18.184908 11.996211 -3.099803 -6.816891 1.891656 -4.361657 3.824671 2.474392 -8.249513 -10.386482 -22.711957 -2.590905 3.566898 11.493911 0.396595 6.038396 24.418808 0.045300 -1.373500 -3.777100 3.670370 -5.339087 7.007591 19.370915 6.501633 2.561999 -2.844939 -9.281232 34.175649 -0.149974 -2.954048 19.770092 -0.021500 0.947500 -2.604400 2.704092 1.954408 2.772436 2.303905 2.864101 0.966708 -0.384220 1.406997 -5.991695 -5.418205 -4.481834 -13.870378 4.322031 -5.339796 19.468333 0.040600 -2.076200 9.990500 -7.549012 2.768975 -1.379712 -82.877702 9.085411 15.904718 7.687092 -14.226016 -1.028426 -1.211178 -1.242590 1.378031 26.927817 19.472989 10.682600 -7.125000 0.000000 0.000000 -0.462400 53.144400 -0.092600 11.836156 -1.326741 -2.272130 72.915482 3.624025 11.361981 -9.357759 20.547027 -2.244728 1.228347 -0.755420 6.290044 -18.686986 20.945774 -7.568100 7.125000 0.000000 0.000000 5.508100 -7.403000 4.775200 
